<?xml version="1.0" encoding="UTF-8"?>
<!DOCTYPE svg
PUBLIC "-//W3C//DTD SVG 1.1//EN"
       "http://www.w3.org/Graphics/SVG/1.1/DTD/svg11.dtd">
<svg viewBox="51 104 1429 683" width="1378px" height="579px" xmlns="http://www.w3.org/2000/svg" version="1.1">
   <line x1="593" y1="230" x2="583" y2="230" style="stroke:#c00;stroke-width:1;"/>
   <line x1="374" y1="149" x2="364" y2="149" style="stroke:#c00;stroke-width:1;"/>
   <line x1="583" y1="230" x2="374" y2="149" style="stroke:#c00;stroke-width:1;"/>
   <line x1="585.5" y1="230" x2="589.03553390593" y2="233.53553390593" style="stroke:#c00;stroke-width:2;"/>
   <line x1="585.5" y1="230" x2="589.03553390593" y2="226.46446609407" style="stroke:#c00;stroke-width:2;"/>
   <line x1="369" y1="149" x2="372.53553390593" y2="152.53553390593" style="stroke:#c00;stroke-width:2;"/>
   <line x1="369" y1="149" x2="372.53553390593" y2="145.46446609407" style="stroke:#c00;stroke-width:2;"/>
   <line x1="593" y1="190" x2="583" y2="190" style="stroke:#bbb;stroke-width:1;"/>
   <line x1="394" y1="282" x2="384" y2="282" style="stroke:#bbb;stroke-width:1;"/>
   <line x1="583" y1="190" x2="394" y2="282" style="stroke:#bbb;stroke-width:1;"/>
   <line x1="585.5" y1="190" x2="589.03553390593" y2="193.53553390593" style="stroke:#bbb;stroke-width:2;"/>
   <line x1="585.5" y1="190" x2="589.03553390593" y2="186.46446609407" style="stroke:#bbb;stroke-width:2;"/>
   <line x1="389" y1="282" x2="392.53553390593" y2="285.53553390593" style="stroke:#bbb;stroke-width:2;"/>
   <line x1="389" y1="282" x2="392.53553390593" y2="278.46446609407" style="stroke:#bbb;stroke-width:2;"/>
   <line x1="1050" y1="294" x2="1040" y2="294" style="stroke:#bbb;stroke-width:1;"/>
   <line x1="684" y1="170" x2="674" y2="170" style="stroke:#bbb;stroke-width:1;"/>
   <line x1="1040" y1="294" x2="684" y2="170" style="stroke:#bbb;stroke-width:1;"/>
   <line x1="1042.5" y1="294" x2="1046.0355339059" y2="297.53553390593" style="stroke:#bbb;stroke-width:2;"/>
   <line x1="1042.5" y1="294" x2="1046.0355339059" y2="290.46446609407" style="stroke:#bbb;stroke-width:2;"/>
   <line x1="679" y1="170" x2="682.53553390593" y2="173.53553390593" style="stroke:#bbb;stroke-width:2;"/>
   <line x1="679" y1="170" x2="682.53553390593" y2="166.46446609407" style="stroke:#bbb;stroke-width:2;"/>
   <line x1="1050" y1="314" x2="1040" y2="314" style="stroke:#cb0;stroke-width:1;"/>
   <line x1="947" y1="550" x2="937" y2="550" style="stroke:#cb0;stroke-width:1;"/>
   <line x1="1040" y1="314" x2="947" y2="550" style="stroke:#cb0;stroke-width:1;"/>
   <line x1="1042.5" y1="314" x2="1046.0355339059" y2="317.53553390593" style="stroke:#cb0;stroke-width:2;"/>
   <line x1="1042.5" y1="314" x2="1046.0355339059" y2="310.46446609407" style="stroke:#cb0;stroke-width:2;"/>
   <line x1="942" y1="550" x2="945.53553390593" y2="553.53553390593" style="stroke:#cb0;stroke-width:2;"/>
   <line x1="942" y1="550" x2="945.53553390593" y2="546.46446609407" style="stroke:#cb0;stroke-width:2;"/>
   <line x1="596" y1="434" x2="586" y2="434" style="stroke:#c00;stroke-width:1;"/>
   <line x1="583" y1="170" x2="593" y2="170" style="stroke:#c00;stroke-width:1;"/>
   <line x1="586" y1="434" x2="583" y2="170" style="stroke:#c00;stroke-width:1;"/>
   <line x1="588.5" y1="434" x2="592.03553390593" y2="437.53553390593" style="stroke:#c00;stroke-width:2;"/>
   <line x1="588.5" y1="434" x2="592.03553390593" y2="430.46446609407" style="stroke:#c00;stroke-width:2;"/>
   <line x1="588" y1="170" x2="584.46446609407" y2="173.53553390593" style="stroke:#c00;stroke-width:2;"/>
   <line x1="588" y1="170" x2="584.46446609407" y2="166.46446609407" style="stroke:#c00;stroke-width:2;"/>
   <line x1="685" y1="414" x2="695" y2="414" style="stroke:#bbb;stroke-width:1;"/>
   <line x1="819" y1="444" x2="829" y2="444" style="stroke:#bbb;stroke-width:1;"/>
   <line x1="695" y1="414" x2="819" y2="444" style="stroke:#bbb;stroke-width:1;"/>
   <line x1="692.5" y1="414" x2="688.96446609407" y2="417.53553390593" style="stroke:#bbb;stroke-width:2;"/>
   <line x1="692.5" y1="414" x2="688.96446609407" y2="410.46446609407" style="stroke:#bbb;stroke-width:2;"/>
   <line x1="824" y1="444" x2="820.46446609407" y2="447.53553390593" style="stroke:#bbb;stroke-width:2;"/>
   <line x1="824" y1="444" x2="820.46446609407" y2="440.46446609407" style="stroke:#bbb;stroke-width:2;"/>
   <line x1="596" y1="374" x2="586" y2="374" style="stroke:#c00;stroke-width:1;"/>
   <line x1="394" y1="282" x2="384" y2="282" style="stroke:#c00;stroke-width:1;"/>
   <line x1="586" y1="374" x2="394" y2="282" style="stroke:#c00;stroke-width:1;"/>
   <line x1="588.5" y1="374" x2="592.03553390593" y2="377.53553390593" style="stroke:#c00;stroke-width:2;"/>
   <line x1="588.5" y1="374" x2="592.03553390593" y2="370.46446609407" style="stroke:#c00;stroke-width:2;"/>
   <line x1="389" y1="282" x2="392.53553390593" y2="285.53553390593" style="stroke:#c00;stroke-width:2;"/>
   <line x1="389" y1="282" x2="392.53553390593" y2="278.46446609407" style="stroke:#c00;stroke-width:2;"/>
   <line x1="679" y1="577" x2="689" y2="577" style="stroke:#b0b;stroke-width:1;"/>
   <line x1="695" y1="354" x2="685" y2="354" style="stroke:#b0b;stroke-width:1;"/>
   <line x1="689" y1="577" x2="695" y2="354" style="stroke:#b0b;stroke-width:1;"/>
   <line x1="686.5" y1="577" x2="682.96446609407" y2="580.53553390593" style="stroke:#b0b;stroke-width:2;"/>
   <line x1="686.5" y1="577" x2="682.96446609407" y2="573.46446609407" style="stroke:#b0b;stroke-width:2;"/>
   <line x1="690" y1="354" x2="693.53553390593" y2="357.53553390593" style="stroke:#b0b;stroke-width:2;"/>
   <line x1="690" y1="354" x2="693.53553390593" y2="350.46446609407" style="stroke:#b0b;stroke-width:2;"/>
   <line x1="679" y1="597" x2="689" y2="597" style="stroke:#c00;stroke-width:1;"/>
   <line x1="822" y1="550" x2="832" y2="550" style="stroke:#c00;stroke-width:1;"/>
   <line x1="689" y1="597" x2="822" y2="550" style="stroke:#c00;stroke-width:1;"/>
   <line x1="686.5" y1="597" x2="682.96446609407" y2="600.53553390593" style="stroke:#c00;stroke-width:2;"/>
   <line x1="686.5" y1="597" x2="682.96446609407" y2="593.46446609407" style="stroke:#c00;stroke-width:2;"/>
   <line x1="827" y1="550" x2="823.46446609407" y2="553.53553390593" style="stroke:#c00;stroke-width:2;"/>
   <line x1="827" y1="550" x2="823.46446609407" y2="546.46446609407" style="stroke:#c00;stroke-width:2;"/>
   <line x1="1222" y1="658" x2="1232" y2="658" style="stroke:#0bf;stroke-width:1;"/>
   <line x1="1321" y1="621" x2="1331" y2="621" style="stroke:#0bf;stroke-width:1;"/>
   <line x1="1232" y1="658" x2="1321" y2="621" style="stroke:#0bf;stroke-width:1;"/>
   <line x1="1229.5" y1="658" x2="1225.9644660941" y2="661.53553390593" style="stroke:#0bf;stroke-width:2;"/>
   <line x1="1229.5" y1="658" x2="1225.9644660941" y2="654.46446609407" style="stroke:#0bf;stroke-width:2;"/>
   <line x1="1326" y1="621" x2="1322.4644660941" y2="624.53553390593" style="stroke:#0bf;stroke-width:2;"/>
   <line x1="1326" y1="621" x2="1322.4644660941" y2="617.46446609407" style="stroke:#0bf;stroke-width:2;"/>
   <line x1="1066" y1="638" x2="1056" y2="638" style="stroke:#c00;stroke-width:1;"/>
   <line x1="947" y1="550" x2="937" y2="550" style="stroke:#c00;stroke-width:1;"/>
   <line x1="1056" y1="638" x2="947" y2="550" style="stroke:#c00;stroke-width:1;"/>
   <line x1="1058.5" y1="638" x2="1062.0355339059" y2="641.53553390593" style="stroke:#c00;stroke-width:2;"/>
   <line x1="1058.5" y1="638" x2="1062.0355339059" y2="634.46446609407" style="stroke:#c00;stroke-width:2;"/>
   <line x1="942" y1="550" x2="945.53553390593" y2="553.53553390593" style="stroke:#c00;stroke-width:2;"/>
   <line x1="942" y1="550" x2="945.53553390593" y2="546.46446609407" style="stroke:#c00;stroke-width:2;"/>
   <line x1="303" y1="362" x2="293" y2="362" style="stroke:#0bf;stroke-width:1;"/>
   <line x1="188" y1="304" x2="178" y2="304" style="stroke:#0bf;stroke-width:1;"/>
   <line x1="293" y1="362" x2="188" y2="304" style="stroke:#0bf;stroke-width:1;"/>
   <line x1="295.5" y1="362" x2="299.03553390593" y2="365.53553390593" style="stroke:#0bf;stroke-width:2;"/>
   <line x1="295.5" y1="362" x2="299.03553390593" y2="358.46446609407" style="stroke:#0bf;stroke-width:2;"/>
   <line x1="183" y1="304" x2="186.53553390593" y2="307.53553390593" style="stroke:#0bf;stroke-width:2;"/>
   <line x1="183" y1="304" x2="186.53553390593" y2="300.46446609407" style="stroke:#0bf;stroke-width:2;"/>
   <rect width="81" height="20" x="593" y="140" style="fill:#007;stroke:black;"/>
   <text width="81" height="20" x="598" y="154" style="fill:#fff;" font-family="Arial" font-size="16px"> carritos</text>
   <rect width="81" height="20" x="593" y="160" style="fill:#aea;stroke:black;"/>
   <text width="81" height="20" x="598" y="174" style="fill:black;" font-family="Arial" font-size="16px">id</text>
   <rect width="81" height="20" x="593" y="180" style="fill:none;stroke:black;"/>
   <text width="81" height="20" x="598" y="194" style="fill:black;" font-family="Arial" font-size="16px">fk_user_id</text>
   <rect width="81" height="20" x="593" y="200" style="fill:none;stroke:black;"/>
   <text width="81" height="20" x="598" y="214" style="fill:black;" font-family="Arial" font-size="16px">created_at</text>
   <rect width="81" height="20" x="593" y="220" style="fill:none;stroke:black;"/>
   <text width="81" height="20" x="598" y="234" style="fill:black;" font-family="Arial" font-size="16px">fk_estado</text>
   <rect width="81" height="20" x="593" y="240" style="fill:none;stroke:black;"/>
   <text width="81" height="20" x="598" y="254" style="fill:black;" font-family="Arial" font-size="16px">total</text>
   <rect width="114" height="20" x="250" y="119" style="fill:#007;stroke:black;"/>
   <text width="114" height="20" x="255" y="133" style="fill:#fff;" font-family="Arial" font-size="16px"> carritos_estado</text>
   <rect width="114" height="20" x="250" y="139" style="fill:#aea;stroke:black;"/>
   <text width="114" height="20" x="255" y="153" style="fill:black;" font-family="Arial" font-size="16px">id</text>
   <rect width="114" height="20" x="250" y="159" style="fill:none;stroke:black;"/>
   <text width="114" height="20" x="255" y="173" style="fill:black;" font-family="Arial" font-size="16px">estado</text>
   <rect width="107" height="20" x="1050" y="244" style="fill:#007;stroke:black;"/>
   <text width="107" height="20" x="1055" y="258" style="fill:#fff;" font-family="Arial" font-size="16px"> carrito_items</text>
   <rect width="107" height="20" x="1050" y="264" style="fill:#aea;stroke:black;"/>
   <text width="107" height="20" x="1055" y="278" style="fill:black;" font-family="Arial" font-size="16px">item_id</text>
   <rect width="107" height="20" x="1050" y="284" style="fill:none;stroke:black;"/>
   <text width="107" height="20" x="1055" y="298" style="fill:black;" font-family="Arial" font-size="16px">fk_carrito_id</text>
   <rect width="107" height="20" x="1050" y="304" style="fill:none;stroke:black;"/>
   <text width="107" height="20" x="1055" y="318" style="fill:black;" font-family="Arial" font-size="16px">fk_producto_id</text>
   <rect width="107" height="20" x="1050" y="324" style="fill:none;stroke:black;"/>
   <text width="107" height="20" x="1055" y="338" style="fill:black;" font-family="Arial" font-size="16px">cantidad</text>
   <rect width="83" height="20" x="1331" y="591" style="fill:#007;stroke:black;"/>
   <text width="83" height="20" x="1336" y="605" style="fill:#fff;" font-family="Arial" font-size="16px"> categorias</text>
   <rect width="83" height="20" x="1331" y="611" style="fill:#aea;stroke:black;"/>
   <text width="83" height="20" x="1336" y="625" style="fill:black;" font-family="Arial" font-size="16px">id</text>
   <rect width="83" height="20" x="1331" y="631" style="fill:none;stroke:black;"/>
   <text width="83" height="20" x="1336" y="645" style="fill:black;" font-family="Arial" font-size="16px">categoria</text>
   <rect width="89" height="20" x="596" y="324" style="fill:#007;stroke:black;"/>
   <text width="89" height="20" x="601" y="338" style="fill:#fff;" font-family="Arial" font-size="16px"> ordenes</text>
   <rect width="89" height="20" x="596" y="344" style="fill:#aea;stroke:black;"/>
   <text width="89" height="20" x="601" y="358" style="fill:black;" font-family="Arial" font-size="16px">orden_id</text>
   <rect width="89" height="20" x="596" y="364" style="fill:none;stroke:black;"/>
   <text width="89" height="20" x="601" y="378" style="fill:black;" font-family="Arial" font-size="16px">fk_user_id</text>
   <rect width="89" height="20" x="596" y="384" style="fill:none;stroke:black;"/>
   <text width="89" height="20" x="601" y="398" style="fill:black;" font-family="Arial" font-size="16px">precio_total</text>
   <rect width="89" height="20" x="596" y="404" style="fill:none;stroke:black;"/>
   <text width="89" height="20" x="601" y="418" style="fill:black;" font-family="Arial" font-size="16px">estado_fk</text>
   <rect width="89" height="20" x="596" y="424" style="fill:none;stroke:black;"/>
   <text width="89" height="20" x="601" y="438" style="fill:black;" font-family="Arial" font-size="16px">carrito_fk</text>
   <rect width="89" height="20" x="596" y="444" style="fill:none;stroke:black;"/>
   <text width="89" height="20" x="601" y="458" style="fill:black;" font-family="Arial" font-size="16px">created_at</text>
   <rect width="128" height="20" x="829" y="414" style="fill:#007;stroke:black;"/>
   <text width="128" height="20" x="834" y="428" style="fill:#fff;" font-family="Arial" font-size="16px"> ordenes_estados</text>
   <rect width="128" height="20" x="829" y="434" style="fill:#aea;stroke:black;"/>
   <text width="128" height="20" x="834" y="448" style="fill:black;" font-family="Arial" font-size="16px">id</text>
   <rect width="128" height="20" x="829" y="454" style="fill:none;stroke:black;"/>
   <text width="128" height="20" x="834" y="468" style="fill:black;" font-family="Arial" font-size="16px">estado</text>
   <rect width="107" height="20" x="572" y="527" style="fill:#007;stroke:black;"/>
   <text width="107" height="20" x="577" y="541" style="fill:#fff;" font-family="Arial" font-size="16px"> ordenes_items</text>
   <rect width="107" height="20" x="572" y="547" style="fill:#aea;stroke:black;"/>
   <text width="107" height="20" x="577" y="561" style="fill:black;" font-family="Arial" font-size="16px">orden_item_id</text>
   <rect width="107" height="20" x="572" y="567" style="fill:none;stroke:black;"/>
   <text width="107" height="20" x="577" y="581" style="fill:black;" font-family="Arial" font-size="16px">fk_orden_id</text>
   <rect width="107" height="20" x="572" y="587" style="fill:none;stroke:black;"/>
   <text width="107" height="20" x="577" y="601" style="fill:black;" font-family="Arial" font-size="16px">fk_producto_id</text>
   <rect width="107" height="20" x="572" y="607" style="fill:none;stroke:black;"/>
   <text width="107" height="20" x="577" y="621" style="fill:black;" font-family="Arial" font-size="16px">cantidad</text>
   <rect width="107" height="20" x="572" y="627" style="fill:none;stroke:black;"/>
   <text width="107" height="20" x="577" y="641" style="fill:black;" font-family="Arial" font-size="16px">precio</text>
   <rect width="105" height="20" x="832" y="520" style="fill:#007;stroke:black;"/>
   <text width="105" height="20" x="837" y="534" style="fill:#fff;" font-family="Arial" font-size="16px"> productos_bar</text>
   <rect width="105" height="20" x="832" y="540" style="fill:#aea;stroke:black;"/>
   <text width="105" height="20" x="837" y="554" style="fill:black;" font-family="Arial" font-size="16px">id</text>
   <rect width="105" height="20" x="832" y="560" style="fill:none;stroke:black;"/>
   <text width="105" height="20" x="837" y="574" style="fill:black;" font-family="Arial" font-size="16px">nombre</text>
   <rect width="105" height="20" x="832" y="580" style="fill:none;stroke:black;"/>
   <text width="105" height="20" x="837" y="594" style="fill:black;" font-family="Arial" font-size="16px">descripcion</text>
   <rect width="105" height="20" x="832" y="600" style="fill:none;stroke:black;"/>
   <text width="105" height="20" x="837" y="614" style="fill:black;" font-family="Arial" font-size="16px">imagen</text>
   <rect width="105" height="20" x="832" y="620" style="fill:none;stroke:black;"/>
   <text width="105" height="20" x="837" y="634" style="fill:black;" font-family="Arial" font-size="16px">precio</text>
   <rect width="105" height="20" x="832" y="640" style="fill:none;stroke:black;"/>
   <text width="105" height="20" x="837" y="654" style="fill:black;" font-family="Arial" font-size="16px">stock</text>
   <rect width="156" height="20" x="1066" y="588" style="fill:#007;stroke:black;"/>
   <text width="156" height="20" x="1071" y="602" style="fill:#fff;" font-family="Arial" font-size="16px"> productos_categorias</text>
   <rect width="156" height="20" x="1066" y="608" style="fill:#aea;stroke:black;"/>
   <text width="156" height="20" x="1071" y="622" style="fill:black;" font-family="Arial" font-size="16px">id</text>
   <rect width="156" height="20" x="1066" y="628" style="fill:none;stroke:black;"/>
   <text width="156" height="20" x="1071" y="642" style="fill:black;" font-family="Arial" font-size="16px">producto_fk</text>
   <rect width="156" height="20" x="1066" y="648" style="fill:none;stroke:black;"/>
   <text width="156" height="20" x="1071" y="662" style="fill:black;" font-family="Arial" font-size="16px">categoria_fk</text>
   <rect width="112" height="20" x="66" y="274" style="fill:#007;stroke:black;"/>
   <text width="112" height="20" x="71" y="288" style="fill:#fff;" font-family="Arial" font-size="16px"> roles</text>
   <rect width="112" height="20" x="66" y="294" style="fill:#aea;stroke:black;"/>
   <text width="112" height="20" x="71" y="308" style="fill:black;" font-family="Arial" font-size="16px">id</text>
   <rect width="112" height="20" x="66" y="314" style="fill:none;stroke:black;"/>
   <text width="112" height="20" x="71" y="328" style="fill:black;" font-family="Arial" font-size="16px">categoria_user</text>
   <rect width="81" height="20" x="303" y="252" style="fill:#007;stroke:black;"/>
   <text width="81" height="20" x="308" y="266" style="fill:#fff;" font-family="Arial" font-size="16px"> usuarios</text>
   <rect width="81" height="20" x="303" y="272" style="fill:#aea;stroke:black;"/>
   <text width="81" height="20" x="308" y="286" style="fill:black;" font-family="Arial" font-size="16px">id</text>
   <rect width="81" height="20" x="303" y="292" style="fill:none;stroke:black;"/>
   <text width="81" height="20" x="308" y="306" style="fill:black;" font-family="Arial" font-size="16px">username</text>
   <rect width="81" height="20" x="303" y="312" style="fill:none;stroke:black;"/>
   <text width="81" height="20" x="308" y="326" style="fill:black;" font-family="Arial" font-size="16px">email</text>
   <rect width="81" height="20" x="303" y="332" style="fill:none;stroke:black;"/>
   <text width="81" height="20" x="308" y="346" style="fill:black;" font-family="Arial" font-size="16px">password</text>
   <rect width="81" height="20" x="303" y="352" style="fill:none;stroke:black;"/>
   <text width="81" height="20" x="308" y="366" style="fill:black;" font-family="Arial" font-size="16px">fk_rol</text>
</svg>
